<?xml version="1.0" standalone="no"?>
<!DOCTYPE svg PUBLIC "-//W3C//DTD SVG 20010904//EN"
 "http://www.w3.org/TR/2001/REC-SVG-20010904/DTD/svg10.dtd">
<svg version="1.0" xmlns="http://www.w3.org/2000/svg"
 width="512.000000pt" height="512.000000pt" viewBox="0 0 512.000000 512.000000"
 preserveAspectRatio="xMidYMid meet">

<g transform="translate(0.000000,512.000000) scale(0.100000,-0.100000)"
fill="#000000" stroke="none">
<path d="M2330 5109 c-488 -45 -949 -229 -1350 -537 -195 -150 -447 -431 -594
-662 -63 -98 -185 -349 -231 -474 -117 -316 -171 -703 -147 -1039 26 -362 101
-642 257 -962 131 -268 269 -460 489 -681 438 -437 977 -688 1596 -744 351
-31 752 22 1085 145 126 46 376 168 475 231 334 212 644 527 837 849 282 468
410 1011 363 1535 -72 798 -482 1486 -1152 1933 -119 79 -379 209 -522 262
-335 123 -745 177 -1106 144z m-379 -1132 c64 -43 75 -72 83 -213 12 -221 54
-409 132 -599 63 -153 68 -172 55 -216 -19 -63 -48 -87 -187 -157 l-134 -67
37 -60 c133 -216 353 -457 553 -606 114 -85 204 -145 227 -151 6 -2 41 56 76
128 68 137 92 166 158 185 42 13 50 11 226 -60 184 -74 371 -115 587 -127 142
-8 170 -19 214 -84 l23 -34 -3 -347 c-3 -333 -4 -349 -24 -375 -42 -56 -69
-69 -162 -73 -180 -7 -490 37 -721 104 -334 96 -675 272 -951 491 -109 87
-337 315 -424 424 -220 278 -394 614 -491 951 -63 216 -105 496 -105 690 0 95
9 131 43 168 45 48 60 50 418 51 333 0 336 0 370 -23z"/>
</g>
</svg>
